<svg width="104" height="46" viewBox="0 0 104 46" fill="none" xmlns="http://www.w3.org/2000/svg">
<rect width="104" height="46" fill="white"/>
<path opacity="0.9" d="M8 8V38" stroke="#1976d2" stroke-width="4" stroke-linejoin="round"/>
<path d="M16.8608 20V11.2727H22.5369V12.598H18.4418V14.9673H22.2429V16.2926H18.4418V18.6747H22.571V20H16.8608ZM25.6243 16.1648V20H24.0817V13.4545H25.5561V14.5668H25.6328C25.7834 14.2003 26.0234 13.9091 26.353 13.6932C26.6854 13.4773 27.0959 13.3693 27.5845 13.3693C28.0362 13.3693 28.4297 13.4659 28.7649 13.6591C29.103 13.8523 29.3643 14.1321 29.549 14.4986C29.7365 14.8651 29.8288 15.3097 29.826 15.8324V20H28.2834V16.071C28.2834 15.6335 28.1697 15.2912 27.9425 15.044C27.718 14.7969 27.407 14.6733 27.0092 14.6733C26.7393 14.6733 26.4993 14.733 26.2891 14.8523C26.0817 14.9687 25.9183 15.1378 25.799 15.3594C25.6825 15.581 25.6243 15.8494 25.6243 16.1648ZM34.2408 22.5909C33.6868 22.5909 33.2109 22.5156 32.8132 22.3651C32.4155 22.2173 32.0959 22.0185 31.8544 21.7685C31.6129 21.5185 31.4453 21.2415 31.3516 20.9375L32.7408 20.6009C32.8033 20.7287 32.8942 20.8551 33.0135 20.9801C33.1328 21.108 33.2933 21.2131 33.495 21.2955C33.6996 21.3807 33.9567 21.4233 34.2663 21.4233C34.7038 21.4233 35.0661 21.3168 35.353 21.1037C35.6399 20.8935 35.7834 20.5469 35.7834 20.0639V18.8239H35.7067C35.6271 18.983 35.5107 19.1463 35.3572 19.3139C35.2067 19.4815 35.0064 19.6222 34.7564 19.7358C34.5092 19.8494 34.1982 19.9062 33.8232 19.9062C33.3203 19.9062 32.8643 19.7884 32.4553 19.5526C32.049 19.3139 31.7251 18.9588 31.4837 18.4872C31.245 18.0128 31.1257 17.419 31.1257 16.706C31.1257 15.9872 31.245 15.3807 31.4837 14.8864C31.7251 14.3892 32.0504 14.0128 32.4595 13.7571C32.8686 13.4986 33.3246 13.3693 33.8274 13.3693C34.2109 13.3693 34.5263 13.4347 34.7734 13.5653C35.0234 13.6932 35.2223 13.848 35.37 14.0298C35.5178 14.2088 35.63 14.3778 35.7067 14.5369H35.7919V13.4545H37.3132V20.1065C37.3132 20.6662 37.1797 21.1293 36.9126 21.4957C36.6456 21.8622 36.2805 22.1364 35.8175 22.3182C35.3544 22.5 34.8288 22.5909 34.2408 22.5909ZM34.2536 18.696C34.5803 18.696 34.8587 18.6165 35.0888 18.4574C35.3189 18.2983 35.4936 18.0696 35.6129 17.7713C35.7322 17.473 35.7919 17.1151 35.7919 16.6974C35.7919 16.2855 35.7322 15.9247 35.6129 15.6151C35.4964 15.3054 35.3232 15.0653 35.093 14.8949C34.8658 14.7216 34.5859 14.6349 34.2536 14.6349C33.9098 14.6349 33.6229 14.7244 33.3928 14.9034C33.1626 15.0824 32.9893 15.3281 32.8729 15.6406C32.7564 15.9503 32.6982 16.3026 32.6982 16.6974C32.6982 17.098 32.7564 17.4489 32.8729 17.75C32.9922 18.0483 33.1669 18.2812 33.397 18.4489C33.63 18.6136 33.9155 18.696 34.2536 18.696ZM40.4368 11.2727V20H38.8942V11.2727H40.4368ZM42.0231 20V13.4545H43.5657V20H42.0231ZM42.7987 12.5256C42.5543 12.5256 42.3441 12.4446 42.168 12.2827C41.9918 12.1179 41.9038 11.9205 41.9038 11.6903C41.9038 11.4574 41.9918 11.2599 42.168 11.098C42.3441 10.9332 42.5543 10.8509 42.7987 10.8509C43.0458 10.8509 43.256 10.9332 43.4293 11.098C43.6055 11.2599 43.6935 11.4574 43.6935 11.6903C43.6935 11.9205 43.6055 12.1179 43.4293 12.2827C43.256 12.4446 43.0458 12.5256 42.7987 12.5256ZM50.3253 15.1847L48.919 15.3381C48.8793 15.196 48.8097 15.0625 48.7102 14.9375C48.6136 14.8125 48.483 14.7116 48.3182 14.6349C48.1534 14.5582 47.9517 14.5199 47.7131 14.5199C47.392 14.5199 47.1222 14.5895 46.9034 14.7287C46.6875 14.8679 46.581 15.0483 46.5838 15.2699C46.581 15.4602 46.6506 15.6151 46.7926 15.7344C46.9375 15.8537 47.1761 15.9517 47.5085 16.0284L48.625 16.267C49.2443 16.4006 49.7045 16.6122 50.0057 16.902C50.3097 17.1918 50.4631 17.571 50.4659 18.0398C50.4631 18.4517 50.3423 18.8153 50.1037 19.1307C49.8679 19.4432 49.5398 19.6875 49.1193 19.8636C48.6989 20.0398 48.2159 20.1278 47.6705 20.1278C46.8693 20.1278 46.2244 19.9602 45.7358 19.625C45.2472 19.2869 44.956 18.8168 44.8622 18.2145L46.3665 18.0696C46.4347 18.3651 46.5795 18.5881 46.8011 18.7386C47.0227 18.8892 47.3111 18.9645 47.6662 18.9645C48.0327 18.9645 48.3267 18.8892 48.5483 18.7386C48.7727 18.5881 48.8849 18.402 48.8849 18.1804C48.8849 17.9929 48.8125 17.8381 48.6676 17.7159C48.5256 17.5937 48.304 17.5 48.0028 17.4347L46.8864 17.2003C46.2585 17.0696 45.794 16.8494 45.4929 16.5398C45.1918 16.2273 45.0426 15.8324 45.0455 15.3551C45.0426 14.9517 45.152 14.6023 45.3736 14.3068C45.598 14.0085 45.9091 13.7784 46.3068 13.6165C46.7074 13.4517 47.169 13.3693 47.6918 13.3693C48.4588 13.3693 49.0625 13.5327 49.5028 13.8594C49.946 14.1861 50.2202 14.6278 50.3253 15.1847ZM53.2805 16.1648V20H51.7379V11.2727H53.2464V14.5668H53.3232C53.4766 14.1974 53.7138 13.9062 54.0348 13.6932C54.3587 13.4773 54.7706 13.3693 55.2706 13.3693C55.7251 13.3693 56.1214 13.4645 56.4595 13.6548C56.7976 13.8452 57.0589 14.1236 57.2436 14.4901C57.4311 14.8565 57.5249 15.304 57.5249 15.8324V20H55.9822V16.071C55.9822 15.6307 55.8686 15.2884 55.6413 15.044C55.4169 14.7969 55.1016 14.6733 54.6953 14.6733C54.4226 14.6733 54.1783 14.733 53.9624 14.8523C53.7493 14.9687 53.5817 15.1378 53.4595 15.3594C53.3402 15.581 53.2805 15.8494 53.2805 16.1648ZM63.723 11.2727V20H62.142V11.2727H63.723ZM66.9094 16.1648V20H65.3668V13.4545H66.8413V14.5668H66.918C67.0685 14.2003 67.3086 13.9091 67.6381 13.6932C67.9705 13.4773 68.381 13.3693 68.8697 13.3693C69.3214 13.3693 69.7148 13.4659 70.0501 13.6591C70.3881 13.8523 70.6495 14.1321 70.8342 14.4986C71.0217 14.8651 71.114 15.3097 71.1112 15.8324V20H69.5685V16.071C69.5685 15.6335 69.4549 15.2912 69.2276 15.044C69.0032 14.7969 68.6921 14.6733 68.2944 14.6733C68.0245 14.6733 67.7844 14.733 67.5742 14.8523C67.3668 14.9687 67.2035 15.1378 67.0842 15.3594C66.9677 15.581 66.9094 15.8494 66.9094 16.1648Z" fill="black"/>
<path d="M16.8608 35V26.2727H22.5369V27.598H18.4418V29.9673H22.2429V31.2926H18.4418V33.6747H22.571V35H16.8608ZM24.0817 35V28.4545H25.6243V35H24.0817ZM24.8572 27.5256C24.6129 27.5256 24.4027 27.4446 24.2266 27.2827C24.0504 27.1179 23.9624 26.9205 23.9624 26.6903C23.9624 26.4574 24.0504 26.2599 24.2266 26.098C24.4027 25.9332 24.6129 25.8509 24.8572 25.8509C25.1044 25.8509 25.3146 25.9332 25.4879 26.098C25.6641 26.2599 25.7521 26.4574 25.7521 26.6903C25.7521 26.9205 25.6641 27.1179 25.4879 27.2827C25.3146 27.4446 25.1044 27.5256 24.8572 27.5256ZM30.0572 37.5909C29.5032 37.5909 29.0273 37.5156 28.6296 37.3651C28.2319 37.2173 27.9123 37.0185 27.6708 36.7685C27.4293 36.5185 27.2617 36.2415 27.168 35.9375L28.5572 35.6009C28.6197 35.7287 28.7106 35.8551 28.8299 35.9801C28.9492 36.108 29.1097 36.2131 29.3114 36.2955C29.516 36.3807 29.7731 36.4233 30.0827 36.4233C30.5202 36.4233 30.8825 36.3168 31.1694 36.1037C31.4563 35.8935 31.5998 35.5469 31.5998 35.0639V33.8239H31.5231C31.4435 33.983 31.3271 34.1463 31.1737 34.3139C31.0231 34.4815 30.8228 34.6222 30.5728 34.7358C30.3256 34.8494 30.0146 34.9062 29.6396 34.9062C29.1367 34.9062 28.6808 34.7884 28.2717 34.5526C27.8654 34.3139 27.5415 33.9588 27.3001 33.4872C27.0614 33.0128 26.9421 32.419 26.9421 31.706C26.9421 30.9872 27.0614 30.3807 27.3001 29.8864C27.5415 29.3892 27.8668 29.0128 28.2759 28.7571C28.685 28.4986 29.141 28.3693 29.6438 28.3693C30.0273 28.3693 30.3427 28.4347 30.5898 28.5653C30.8398 28.6932 31.0387 28.848 31.1864 29.0298C31.3342 29.2088 31.4464 29.3778 31.5231 29.5369H31.6083V28.4545H33.1296V35.1065C33.1296 35.6662 32.9961 36.1293 32.729 36.4957C32.462 36.8622 32.0969 37.1364 31.6339 37.3182C31.1708 37.5 30.6452 37.5909 30.0572 37.5909ZM30.07 33.696C30.3967 33.696 30.6751 33.6165 30.9052 33.4574C31.1353 33.2983 31.31 33.0696 31.4293 32.7713C31.5487 32.473 31.6083 32.1151 31.6083 31.6974C31.6083 31.2855 31.5487 30.9247 31.4293 30.6151C31.3129 30.3054 31.1396 30.0653 30.9094 29.8949C30.6822 29.7216 30.4023 29.6349 30.07 29.6349C29.7262 29.6349 29.4393 29.7244 29.2092 29.9034C28.979 30.0824 28.8058 30.3281 28.6893 30.6406C28.5728 30.9503 28.5146 31.3026 28.5146 31.6974C28.5146 32.098 28.5728 32.4489 28.6893 32.75C28.8086 33.0483 28.9833 33.2812 29.2134 33.4489C29.4464 33.6136 29.7319 33.696 30.07 33.696ZM36.2532 31.1648V35H34.7106V26.2727H36.2191V29.5668H36.2958C36.4492 29.1974 36.6864 28.9062 37.0075 28.6932C37.3313 28.4773 37.7433 28.3693 38.2433 28.3693C38.6978 28.3693 39.0941 28.4645 39.4322 28.6548C39.7702 28.8452 40.0316 29.1236 40.2163 29.4901C40.4038 29.8565 40.4975 30.304 40.4975 30.8324V35H38.9549V31.071C38.9549 30.6307 38.8413 30.2884 38.614 30.044C38.3896 29.7969 38.0742 29.6733 37.668 29.6733C37.3952 29.6733 37.1509 29.733 36.935 29.8523C36.7219 29.9687 36.5543 30.1378 36.4322 30.3594C36.3129 30.581 36.2532 30.8494 36.2532 31.1648ZM45.3384 28.4545V29.6477H41.5756V28.4545H45.3384ZM42.5046 26.8864H44.0472V33.0312C44.0472 33.2386 44.0785 33.3977 44.141 33.5085C44.2063 33.6165 44.2915 33.6903 44.3967 33.7301C44.5018 33.7699 44.6183 33.7898 44.7461 33.7898C44.8427 33.7898 44.9308 33.7827 45.0103 33.7685C45.0927 33.7543 45.1552 33.7415 45.1978 33.7301L45.4577 34.9361C45.3754 34.9645 45.2575 34.9957 45.104 35.0298C44.9535 35.0639 44.7688 35.0838 44.5501 35.0895C44.1637 35.1009 43.8157 35.0426 43.506 34.9148C43.1964 34.7841 42.9506 34.5824 42.7688 34.3097C42.5898 34.0369 42.5018 33.696 42.5046 33.2869V26.8864ZM49.6733 26.2727H51.608L54.1989 32.5966H54.3011L56.892 26.2727H58.8267V35H57.3097V29.0043H57.2287L54.8168 34.9744H53.6832L51.2713 28.9915H51.1903V35H49.6733V26.2727ZM60.4801 35V28.4545H62.0227V35H60.4801ZM61.2557 27.5256C61.0114 27.5256 60.8011 27.4446 60.625 27.2827C60.4489 27.1179 60.3608 26.9205 60.3608 26.6903C60.3608 26.4574 60.4489 26.2599 60.625 26.098C60.8011 25.9332 61.0114 25.8509 61.2557 25.8509C61.5028 25.8509 61.7131 25.9332 61.8864 26.098C62.0625 26.2599 62.1506 26.4574 62.1506 26.6903C62.1506 26.9205 62.0625 27.1179 61.8864 27.2827C61.7131 27.4446 61.5028 27.5256 61.2557 27.5256ZM65.1516 31.1648V35H63.609V28.4545H65.0835V29.5668H65.1602C65.3107 29.2003 65.5508 28.9091 65.8803 28.6932C66.2127 28.4773 66.6232 28.3693 67.1119 28.3693C67.5636 28.3693 67.957 28.4659 68.2923 28.6591C68.6303 28.8523 68.8917 29.1321 69.0763 29.4986C69.2638 29.8651 69.3562 30.3097 69.3533 30.8324V35H67.8107V31.071C67.8107 30.6335 67.6971 30.2912 67.4698 30.044C67.2454 29.7969 66.9343 29.6733 66.5366 29.6733C66.2667 29.6733 66.0266 29.733 65.8164 29.8523C65.609 29.9687 65.4457 30.1378 65.3263 30.3594C65.2099 30.581 65.1516 30.8494 65.1516 31.1648ZM75.0934 32.2472V28.4545H76.636V35H75.1403V33.8366H75.0721C74.9244 34.2031 74.6815 34.5028 74.3434 34.7358C74.0082 34.9687 73.5948 35.0852 73.1033 35.0852C72.6744 35.0852 72.2951 34.9901 71.9656 34.7997C71.6388 34.6065 71.3832 34.3267 71.1985 33.9602C71.0138 33.5909 70.9215 33.1449 70.9215 32.6222V28.4545H72.4641V32.3835C72.4641 32.7983 72.5778 33.1278 72.805 33.3722C73.0323 33.6165 73.3306 33.7386 73.6999 33.7386C73.9272 33.7386 74.1474 33.6832 74.3604 33.5724C74.5735 33.4616 74.7482 33.2969 74.8846 33.0781C75.0238 32.8565 75.0934 32.5795 75.0934 32.2472ZM81.4908 28.4545V29.6477H77.728V28.4545H81.4908ZM78.657 26.8864H80.1996V33.0312C80.1996 33.2386 80.2308 33.3977 80.2933 33.5085C80.3587 33.6165 80.4439 33.6903 80.549 33.7301C80.6541 33.7699 80.7706 33.7898 80.8984 33.7898C80.995 33.7898 81.0831 33.7827 81.1626 33.7685C81.245 33.7543 81.3075 33.7415 81.3501 33.7301L81.6101 34.9361C81.5277 34.9645 81.4098 34.9957 81.2564 35.0298C81.1058 35.0639 80.9212 35.0838 80.7024 35.0895C80.3161 35.1009 79.968 35.0426 79.6584 34.9148C79.3487 34.7841 79.103 34.5824 78.9212 34.3097C78.7422 34.0369 78.6541 33.696 78.657 33.2869V26.8864ZM85.6083 35.1278C84.9521 35.1278 84.3853 34.9915 83.908 34.7188C83.4336 34.4432 83.0685 34.054 82.8129 33.5511C82.5572 33.0455 82.4293 32.4503 82.4293 31.7656C82.4293 31.0923 82.5572 30.5014 82.8129 29.9929C83.0714 29.4815 83.4322 29.0838 83.8952 28.7997C84.3583 28.5128 84.9023 28.3693 85.5273 28.3693C85.9308 28.3693 86.3114 28.4347 86.6694 28.5653C87.0302 28.6932 87.3484 28.892 87.6239 29.1619C87.9023 29.4318 88.1211 29.7756 88.2802 30.1932C88.4393 30.608 88.5188 31.1023 88.5188 31.6761V32.1491H83.1538V31.1094H87.0401C87.0373 30.8139 86.9734 30.5511 86.8484 30.321C86.7234 30.0881 86.5487 29.9048 86.3242 29.7713C86.1026 29.6378 85.8441 29.571 85.5487 29.571C85.2333 29.571 84.9563 29.6477 84.7177 29.8011C84.479 29.9517 84.293 30.1506 84.1594 30.3977C84.0288 30.642 83.962 30.9105 83.9592 31.2031V32.1108C83.9592 32.4915 84.0288 32.8182 84.168 33.0909C84.3072 33.3608 84.5018 33.5682 84.7518 33.7131C85.0018 33.8551 85.2944 33.9261 85.6296 33.9261C85.854 33.9261 86.0572 33.8949 86.239 33.8324C86.4208 33.767 86.5785 33.6719 86.712 33.5469C86.8455 33.4219 86.9464 33.267 87.0146 33.0824L88.4549 33.2443C88.364 33.625 88.1907 33.9574 87.935 34.2415C87.6822 34.5227 87.3583 34.7415 86.9634 34.8977C86.5685 35.0511 86.1168 35.1278 85.6083 35.1278ZM94.9972 30.1847L93.5909 30.3381C93.5511 30.196 93.4815 30.0625 93.3821 29.9375C93.2855 29.8125 93.1548 29.7116 92.9901 29.6349C92.8253 29.5582 92.6236 29.5199 92.3849 29.5199C92.0639 29.5199 91.794 29.5895 91.5753 29.7287C91.3594 29.8679 91.2528 30.0483 91.2557 30.2699C91.2528 30.4602 91.3224 30.6151 91.4645 30.7344C91.6094 30.8537 91.848 30.9517 92.1804 31.0284L93.2969 31.267C93.9162 31.4006 94.3764 31.6122 94.6776 31.902C94.9815 32.1918 95.1349 32.571 95.1378 33.0398C95.1349 33.4517 95.0142 33.8153 94.7756 34.1307C94.5398 34.4432 94.2116 34.6875 93.7912 34.8636C93.3707 35.0398 92.8878 35.1278 92.3423 35.1278C91.5412 35.1278 90.8963 34.9602 90.4077 34.625C89.919 34.2869 89.6278 33.8168 89.5341 33.2145L91.0384 33.0696C91.1065 33.3651 91.2514 33.5881 91.473 33.7386C91.6946 33.8892 91.983 33.9645 92.3381 33.9645C92.7045 33.9645 92.9986 33.8892 93.2202 33.7386C93.4446 33.5881 93.5568 33.402 93.5568 33.1804C93.5568 32.9929 93.4844 32.8381 93.3395 32.7159C93.1974 32.5937 92.9759 32.5 92.6747 32.4347L91.5582 32.2003C90.9304 32.0696 90.4659 31.8494 90.1648 31.5398C89.8636 31.2273 89.7145 30.8324 89.7173 30.3551C89.7145 29.9517 89.8239 29.6023 90.0455 29.3068C90.2699 29.0085 90.581 28.7784 90.9787 28.6165C91.3793 28.4517 91.8409 28.3693 92.3636 28.3693C93.1307 28.3693 93.7344 28.5327 94.1747 28.8594C94.6179 29.1861 94.892 29.6278 94.9972 30.1847Z" fill="#DE0000"/>
</svg>
