<svg width="120" height="46" viewBox="0 0 120 46" fill="none" xmlns="http://www.w3.org/2000/svg">
<g clip-path="url(#clip0_1803_7)">
<path d="M168 0H0V46H168V0Z" fill="white"/>
<path d="M34 19.1491V10.4218H39.6761V11.7471H35.581V14.1164H39.3821V15.4417H35.581V17.8238H39.7102V19.1491H34ZM42.7635 15.3139V19.1491H41.2209V12.6036H42.6953V13.7159H42.772C42.9226 13.3494 43.1626 13.0582 43.4922 12.8423C43.8246 12.6264 44.2351 12.5184 44.7237 12.5184C45.1754 12.5184 45.5689 12.615 45.9041 12.8082C46.2422 13.0014 46.5035 13.2812 46.6882 13.6477C46.8757 14.0142 46.968 14.4588 46.9652 14.9815V19.1491H45.4226V15.2201C45.4226 14.7826 45.3089 14.4403 45.0817 14.1931C44.8572 13.946 44.5462 13.8224 44.1484 13.8224C43.8785 13.8224 43.6385 13.8821 43.4283 14.0014C43.2209 14.1178 43.0575 14.2869 42.9382 14.5085C42.8217 14.7301 42.7635 14.9985 42.7635 15.3139ZM51.38 21.74C50.826 21.74 50.3501 21.6647 49.9524 21.5142C49.5547 21.3664 49.2351 21.1676 48.9936 20.9176C48.7521 20.6676 48.5845 20.3906 48.4908 20.0866L49.88 19.75C49.9425 19.8778 50.0334 20.0042 50.1527 20.1292C50.272 20.2571 50.4325 20.3622 50.6342 20.4446C50.8388 20.5298 51.0959 20.5724 51.4055 20.5724C51.843 20.5724 52.2053 20.4659 52.4922 20.2528C52.7791 20.0426 52.9226 19.696 52.9226 19.213V17.973H52.8459C52.7663 18.1321 52.6499 18.2954 52.4964 18.463C52.3459 18.6306 52.1456 18.7713 51.8956 18.8849C51.6484 18.9985 51.3374 19.0553 50.9624 19.0553C50.4595 19.0553 50.0035 18.9375 49.5945 18.7017C49.1882 18.463 48.8643 18.1079 48.6229 17.6363C48.3842 17.1619 48.2649 16.5681 48.2649 15.8551C48.2649 15.1363 48.3842 14.5298 48.6229 14.0355C48.8643 13.5383 49.1896 13.1619 49.5987 12.9062C50.0078 12.6477 50.4638 12.5184 50.9666 12.5184C51.3501 12.5184 51.6655 12.5838 51.9126 12.7144C52.1626 12.8423 52.3615 12.9971 52.5092 13.1789C52.657 13.3579 52.7692 13.5269 52.8459 13.686H52.9311V12.6036H54.4524V19.2556C54.4524 19.8153 54.3189 20.2784 54.0518 20.6448C53.7848 21.0113 53.4197 21.2855 52.9567 21.4673C52.4936 21.6491 51.968 21.74 51.38 21.74ZM51.3928 17.8451C51.7195 17.8451 51.9979 17.7656 52.228 17.6065C52.4581 17.4474 52.6328 17.2187 52.7521 16.9204C52.8714 16.6221 52.9311 16.2642 52.9311 15.8465C52.9311 15.4346 52.8714 15.0738 52.7521 14.7642C52.6356 14.4545 52.4624 14.2144 52.2322 14.044C52.005 13.8707 51.7251 13.784 51.3928 13.784C51.049 13.784 50.7621 13.8735 50.532 14.0525C50.3018 14.2315 50.1285 14.4772 50.0121 14.7897C49.8956 15.0994 49.8374 15.4517 49.8374 15.8465C49.8374 16.2471 49.8956 16.598 50.0121 16.8991C50.1314 17.1974 50.3061 17.4303 50.5362 17.598C50.7692 17.7627 51.0547 17.8451 51.3928 17.8451ZM57.576 10.4218V19.1491H56.0334V10.4218H57.576ZM59.1623 19.1491V12.6036H60.7049V19.1491H59.1623ZM59.9379 11.6747C59.6935 11.6747 59.4833 11.5937 59.3072 11.4318C59.131 11.267 59.043 11.0696 59.043 10.8394C59.043 10.6065 59.131 10.409 59.3072 10.2471C59.4833 10.0823 59.6935 10 59.9379 10C60.185 10 60.3952 10.0823 60.5685 10.2471C60.7447 10.409 60.8327 10.6065 60.8327 10.8394C60.8327 11.0696 60.7447 11.267 60.5685 11.4318C60.3952 11.5937 60.185 11.6747 59.9379 11.6747ZM67.4645 14.3338L66.0582 14.4872C66.0185 14.3451 65.9489 14.2116 65.8494 14.0866C65.7528 13.9616 65.6222 13.8607 65.4574 13.784C65.2926 13.7073 65.0909 13.669 64.8523 13.669C64.5312 13.669 64.2614 13.7386 64.0426 13.8778C63.8267 14.017 63.7202 14.1974 63.723 14.419C63.7202 14.6093 63.7898 14.7642 63.9318 14.8835C64.0767 15.0028 64.3153 15.1008 64.6477 15.1775L65.7642 15.4161C66.3835 15.5497 66.8437 15.7613 67.1449 16.0511C67.4489 16.3409 67.6023 16.7201 67.6051 17.1889C67.6023 17.6008 67.4815 17.9644 67.2429 18.2798C67.0071 18.5923 66.679 18.8366 66.2585 19.0127C65.8381 19.1889 65.3551 19.2769 64.8097 19.2769C64.0085 19.2769 63.3636 19.1093 62.875 18.7741C62.3864 18.436 62.0952 17.9659 62.0014 17.3636L63.5057 17.2187C63.5739 17.5142 63.7187 17.7372 63.9403 17.8877C64.1619 18.0383 64.4503 18.1136 64.8054 18.1136C65.1719 18.1136 65.4659 18.0383 65.6875 17.8877C65.9119 17.7372 66.0241 17.5511 66.0241 17.3295C66.0241 17.142 65.9517 16.9872 65.8068 16.865C65.6648 16.7428 65.4432 16.6491 65.142 16.5838L64.0256 16.3494C63.3977 16.2187 62.9332 15.9985 62.6321 15.6889C62.331 15.3764 62.1818 14.9815 62.1847 14.5042C62.1818 14.1008 62.2912 13.7514 62.5128 13.4559C62.7372 13.1576 63.0483 12.9275 63.446 12.7656C63.8466 12.6008 64.3082 12.5184 64.831 12.5184C65.598 12.5184 66.2017 12.6818 66.642 13.0085C67.0852 13.3352 67.3594 13.7769 67.4645 14.3338ZM70.4197 15.3139V19.1491H68.8771V10.4218H70.3856V13.7159H70.4624C70.6158 13.3465 70.853 13.0553 71.174 12.8423C71.4979 12.6264 71.9098 12.5184 72.4098 12.5184C72.8643 12.5184 73.2606 12.6136 73.5987 12.8039C73.9368 12.9943 74.1981 13.2727 74.3828 13.6392C74.5703 14.0056 74.6641 14.4531 74.6641 14.9815V19.1491H73.1214V15.2201C73.1214 14.7798 73.0078 14.4375 72.7805 14.1931C72.5561 13.946 72.2408 13.8224 71.8345 13.8224C71.5618 13.8224 71.3175 13.8821 71.1016 14.0014C70.8885 14.1178 70.7209 14.2869 70.5987 14.5085C70.4794 14.7301 70.4197 14.9985 70.4197 15.3139ZM80.8622 10.4218V19.1491H79.2812V10.4218H80.8622ZM84.0486 15.3139V19.1491H82.506V12.6036H83.9805V13.7159H84.0572C84.2077 13.3494 84.4478 13.0582 84.7773 12.8423C85.1097 12.6264 85.5202 12.5184 86.0089 12.5184C86.4606 12.5184 86.854 12.615 87.1893 12.8082C87.5273 13.0014 87.7887 13.2812 87.9734 13.6477C88.1609 14.0142 88.2532 14.4588 88.2504 14.9815V19.1491H86.7077V15.2201C86.7077 14.7826 86.5941 14.4403 86.3668 14.1931C86.1424 13.946 85.8313 13.8224 85.4336 13.8224C85.1637 13.8224 84.9236 13.8821 84.7134 14.0014C84.506 14.1178 84.3427 14.2869 84.2234 14.5085C84.1069 14.7301 84.0486 14.9985 84.0486 15.3139Z" fill="#2D2D2D"/>
<path d="M34 34.1491V25.4218H39.6761V26.7471H35.581V29.1164H39.3821V30.4417H35.581V32.8238H39.7102V34.1491H34ZM41.2209 34.1491V27.6036H42.7635V34.1491H41.2209ZM41.9964 26.6747C41.7521 26.6747 41.5419 26.5937 41.3658 26.4318C41.1896 26.267 41.1016 26.0696 41.1016 25.8394C41.1016 25.6065 41.1896 25.409 41.3658 25.2471C41.5419 25.0823 41.7521 25 41.9964 25C42.2436 25 42.4538 25.0823 42.6271 25.2471C42.8033 25.409 42.8913 25.6065 42.8913 25.8394C42.8913 26.0696 42.8033 26.267 42.6271 26.4318C42.4538 26.5937 42.2436 26.6747 41.9964 26.6747ZM47.1964 36.74C46.6424 36.74 46.1665 36.6647 45.7688 36.5142C45.3711 36.3664 45.0515 36.1676 44.81 35.9176C44.5685 35.6676 44.4009 35.3906 44.3072 35.0866L45.6964 34.75C45.7589 34.8778 45.8498 35.0042 45.9691 35.1292C46.0884 35.2571 46.2489 35.3622 46.4506 35.4446C46.6552 35.5298 46.9123 35.5724 47.2219 35.5724C47.6594 35.5724 48.0217 35.4659 48.3086 35.2528C48.5955 35.0426 48.739 34.696 48.739 34.213V32.973H48.6623C48.5827 33.1321 48.4663 33.2954 48.3129 33.463C48.1623 33.6306 47.962 33.7713 47.712 33.8849C47.4648 33.9985 47.1538 34.0553 46.7788 34.0553C46.2759 34.0553 45.82 33.9375 45.4109 33.7017C45.0046 33.463 44.6807 33.1079 44.4393 32.6363C44.2006 32.1619 44.0813 31.5681 44.0813 30.8551C44.0813 30.1363 44.2006 29.5298 44.4393 29.0355C44.6807 28.5383 45.006 28.1619 45.4151 27.9062C45.8242 27.6477 46.2802 27.5184 46.783 27.5184C47.1665 27.5184 47.4819 27.5838 47.729 27.7144C47.979 27.8423 48.1779 27.9971 48.3256 28.1789C48.4734 28.3579 48.5856 28.5269 48.6623 28.686H48.7475V27.6036H50.2688V34.2556C50.2688 34.8153 50.1353 35.2784 49.8682 35.6448C49.6012 36.0113 49.2361 36.2855 48.7731 36.4673C48.31 36.6491 47.7844 36.74 47.1964 36.74ZM47.2092 32.8451C47.5359 32.8451 47.8143 32.7656 48.0444 32.6065C48.2745 32.4474 48.4492 32.2187 48.5685 31.9204C48.6879 31.6221 48.7475 31.2642 48.7475 30.8465C48.7475 30.4346 48.6879 30.0738 48.5685 29.7642C48.4521 29.4545 48.2788 29.2144 48.0486 29.044C47.8214 28.8707 47.5415 28.784 47.2092 28.784C46.8654 28.784 46.5785 28.8735 46.3484 29.0525C46.1182 29.2315 45.945 29.4772 45.8285 29.7897C45.712 30.0994 45.6538 30.4517 45.6538 30.8465C45.6538 31.2471 45.712 31.598 45.8285 31.8991C45.9478 32.1974 46.1225 32.4303 46.3526 32.598C46.5856 32.7627 46.8711 32.8451 47.2092 32.8451ZM53.3924 30.3139V34.1491H51.8498V25.4218H53.3583V28.7159H53.435C53.5884 28.3465 53.8256 28.0553 54.1467 27.8423C54.4705 27.6264 54.8825 27.5184 55.3825 27.5184C55.837 27.5184 56.2333 27.6136 56.5714 27.8039C56.9094 27.9943 57.1708 28.2727 57.3555 28.6392C57.543 29.0056 57.6367 29.4531 57.6367 29.9815V34.1491H56.0941V30.2201C56.0941 29.7798 55.9805 29.4375 55.7532 29.1931C55.5288 28.946 55.2134 28.8224 54.8072 28.8224C54.5344 28.8224 54.2901 28.8821 54.0742 29.0014C53.8611 29.1178 53.6935 29.2869 53.5714 29.5085C53.4521 29.7301 53.3924 29.9985 53.3924 30.3139ZM62.4776 27.6036V28.7968H58.7148V27.6036H62.4776ZM59.6438 26.0355H61.1864V32.1803C61.1864 32.3877 61.2177 32.5468 61.2802 32.6576C61.3455 32.7656 61.4307 32.8394 61.5359 32.8792C61.641 32.919 61.7575 32.9389 61.8853 32.9389C61.9819 32.9389 62.07 32.9318 62.1495 32.9176C62.2319 32.9034 62.2944 32.8906 62.337 32.8792L62.5969 34.0852C62.5146 34.1136 62.3967 34.1448 62.2432 34.1789C62.0927 34.213 61.908 34.2329 61.6893 34.2386C61.3029 34.25 60.9549 34.1917 60.6452 34.0639C60.3356 33.9332 60.0898 33.7315 59.908 33.4588C59.729 33.186 59.641 32.8451 59.6438 32.436V26.0355ZM66.8125 25.4218H68.7472L71.3381 31.7457H71.4403L74.0312 25.4218H75.9659V34.1491H74.4489V28.1534H74.3679L71.956 34.1235H70.8224L68.4105 28.1406H68.3295V34.1491H66.8125V25.4218ZM77.6193 34.1491V27.6036H79.1619V34.1491H77.6193ZM78.3949 26.6747C78.1506 26.6747 77.9403 26.5937 77.7642 26.4318C77.5881 26.267 77.5 26.0696 77.5 25.8394C77.5 25.6065 77.5881 25.409 77.7642 25.2471C77.9403 25.0823 78.1506 25 78.3949 25C78.642 25 78.8523 25.0823 79.0256 25.2471C79.2017 25.409 79.2898 25.6065 79.2898 25.8394C79.2898 26.0696 79.2017 26.267 79.0256 26.4318C78.8523 26.5937 78.642 26.6747 78.3949 26.6747ZM82.2908 30.3139V34.1491H80.7482V27.6036H82.2227V28.7159H82.2994C82.4499 28.3494 82.69 28.0582 83.0195 27.8423C83.3519 27.6264 83.7624 27.5184 84.2511 27.5184C84.7028 27.5184 85.0962 27.615 85.4315 27.8082C85.7695 28.0014 86.0309 28.2812 86.2155 28.6477C86.403 29.0142 86.4954 29.4588 86.4925 29.9815V34.1491H84.9499V30.2201C84.9499 29.7826 84.8363 29.4403 84.609 29.1931C84.3846 28.946 84.0735 28.8224 83.6758 28.8224C83.4059 28.8224 83.1658 28.8821 82.9556 29.0014C82.7482 29.1178 82.5849 29.2869 82.4655 29.5085C82.3491 29.7301 82.2908 29.9985 82.2908 30.3139ZM92.2326 31.3963V27.6036H93.7752V34.1491H92.2795V32.9857H92.2113C92.0636 33.3522 91.8207 33.6519 91.4826 33.8849C91.1474 34.1178 90.734 34.2343 90.2425 34.2343C89.8136 34.2343 89.4343 34.1392 89.1048 33.9488C88.778 33.7556 88.5224 33.4758 88.3377 33.1093C88.153 32.74 88.0607 32.294 88.0607 31.7713V27.6036H89.6033V31.5326C89.6033 31.9474 89.717 32.2769 89.9442 32.5213C90.1715 32.7656 90.4698 32.8877 90.8391 32.8877C91.0664 32.8877 91.2866 32.8323 91.4996 32.7215C91.7127 32.6107 91.8874 32.446 92.0238 32.2272C92.163 32.0056 92.2326 31.7286 92.2326 31.3963ZM98.63 27.6036V28.7968H94.8672V27.6036H98.63ZM95.7962 26.0355H97.3388V32.1803C97.3388 32.3877 97.37 32.5468 97.4325 32.6576C97.4979 32.7656 97.5831 32.8394 97.6882 32.8792C97.7933 32.919 97.9098 32.9389 98.0376 32.9389C98.1342 32.9389 98.2223 32.9318 98.3018 32.9176C98.3842 32.9034 98.4467 32.8906 98.4893 32.8792L98.7493 34.0852C98.6669 34.1136 98.549 34.1448 98.3956 34.1789C98.245 34.213 98.0604 34.2329 97.8416 34.2386C97.4553 34.25 97.1072 34.1917 96.7976 34.0639C96.4879 33.9332 96.2422 33.7315 96.0604 33.4588C95.8814 33.186 95.7933 32.8451 95.7962 32.436V26.0355ZM102.747 34.2769C102.091 34.2769 101.524 34.1406 101.047 33.8679C100.573 33.5923 100.208 33.2031 99.9521 32.7002C99.6964 32.1946 99.5685 31.5994 99.5685 30.9147C99.5685 30.2414 99.6964 29.6505 99.9521 29.142C100.211 28.6306 100.571 28.2329 101.034 27.9488C101.498 27.6619 102.041 27.5184 102.666 27.5184C103.07 27.5184 103.451 27.5838 103.809 27.7144C104.169 27.8423 104.488 28.0411 104.763 28.311C105.041 28.5809 105.26 28.9247 105.419 29.3423C105.578 29.7571 105.658 30.2514 105.658 30.8252V31.2982H100.293V30.2585H104.179C104.176 29.963 104.113 29.7002 103.988 29.4701C103.863 29.2372 103.688 29.0539 103.463 28.9204C103.242 28.7869 102.983 28.7201 102.688 28.7201C102.372 28.7201 102.095 28.7968 101.857 28.9502C101.618 29.1008 101.432 29.2997 101.299 29.5468C101.168 29.7911 101.101 30.0596 101.098 30.3522V31.2599C101.098 31.6406 101.168 31.9673 101.307 32.24C101.446 32.5099 101.641 32.7173 101.891 32.8622C102.141 33.0042 102.434 33.0752 102.769 33.0752C102.993 33.0752 103.196 33.044 103.378 32.9815C103.56 32.9161 103.718 32.821 103.851 32.696C103.985 32.571 104.086 32.4161 104.154 32.2315L105.594 32.3934C105.503 32.7741 105.33 33.1065 105.074 33.3906C104.821 33.6718 104.498 33.8906 104.103 34.0468C103.708 34.2002 103.256 34.2769 102.747 34.2769ZM112.136 29.3338L110.73 29.4872C110.69 29.3451 110.621 29.2116 110.521 29.0866C110.425 28.9616 110.294 28.8607 110.129 28.784C109.964 28.7073 109.763 28.669 109.524 28.669C109.203 28.669 108.933 28.7386 108.715 28.8778C108.499 29.017 108.392 29.1974 108.395 29.419C108.392 29.6093 108.462 29.7642 108.604 29.8835C108.749 30.0028 108.987 30.1008 109.32 30.1775L110.436 30.4161C111.055 30.5497 111.516 30.7613 111.817 31.0511C112.121 31.3409 112.274 31.7201 112.277 32.1889C112.274 32.6008 112.153 32.9644 111.915 33.2798C111.679 33.5923 111.351 33.8366 110.93 34.0127C110.51 34.1889 110.027 34.2769 109.481 34.2769C108.68 34.2769 108.035 34.1093 107.547 33.7741C107.058 33.436 106.767 32.9659 106.673 32.3636L108.178 32.2187C108.246 32.5142 108.391 32.7372 108.612 32.8877C108.834 33.0383 109.122 33.1136 109.477 33.1136C109.844 33.1136 110.138 33.0383 110.359 32.8877C110.584 32.7372 110.696 32.5511 110.696 32.3295C110.696 32.142 110.624 31.9872 110.479 31.865C110.337 31.7428 110.115 31.6491 109.814 31.5838L108.697 31.3494C108.07 31.2187 107.605 30.9985 107.304 30.6889C107.003 30.3764 106.854 29.9815 106.856 29.5042C106.854 29.1008 106.963 28.7514 107.185 28.4559C107.409 28.1576 107.72 27.9275 108.118 27.7656C108.518 27.6008 108.98 27.5184 109.503 27.5184C110.27 27.5184 110.874 27.6818 111.314 28.0085C111.757 28.3352 112.031 28.7769 112.136 29.3338Z" fill="#CC1E1E"/>
<ellipse cx="17" cy="17.0361" rx="9" ry="9.03614" fill="#1976D2"/>
<ellipse cx="17" cy="28.9638" rx="9" ry="9.03614" fill="#CC1E1E"/>
<path fill-rule="evenodd" clip-rule="evenodd" d="M10.2385 23C11.8879 21.1164 14.3057 19.9277 17 19.9277C19.6943 19.9277 22.1122 21.1164 23.7616 23C22.1122 24.8836 19.6943 26.0723 17 26.0723C14.3057 26.0723 11.8879 24.8836 10.2385 23Z" fill="white"/>
</g>
<defs>
<clipPath id="clip0_1803_7">
<rect width="120" height="46" fill="white"/>
</clipPath>
</defs>
</svg>
