<?xml version="1.0" encoding="utf-8"?>
<!-- Generator: Adobe Illustrator 27.8.1, SVG Export Plug-In . SVG Version: 6.00 Build 0)  -->
<svg version="1.1" id="Layer_1" xmlns="http://www.w3.org/2000/svg" xmlns:xlink="http://www.w3.org/1999/xlink" x="0px" y="0px"
	 viewBox="0 0 80 80" style="enable-background:new 0 0 80 80;" xml:space="preserve">
<style type="text/css">
	.st0{fill:#FFFFFF;}
</style>
<g>
	<path class="st0" d="M4.1,14.4c0,0.5,0,0.7,0,0.9c0,7.3,0,14.6,0,22c0,0.4-0.2,0.8,0.5,0.8c0.6,0,0.9,0,0.7-0.8
		c-0.6-2.7,0.6-5,3-6.3c0.3-0.2,0.5-0.3,0.3-0.7c-0.2-0.5,0.1-1,0.7-1.1c1-0.2,1.9-0.2,2.9,0c0.7,0.1,1,0.6,0.7,1.2
		c-0.2,0.4,0,0.5,0.3,0.6c3.2,1.7,4.1,4.7,2.6,7.9c-0.2,0.5-0.1,0.6,0.3,0.7c0.5,0.2,1,0.4,1.5,0.7c1.5,0.9,1.9,1.8,1.4,3.7
		c1.3-1.7,2.5-3.3,3.6-4.8c0.2-0.3,0.1-0.7,0.1-1.1c0-9.3,0-18.6,0-28c0-1.5,0.3-1.8,1.8-1.8c3.8,0,7.7,0,11.5,0
		c0.6,0,1.1-0.1,1.5-0.7c1.8-2.2,4.8-2.7,7-1.3c0.5,0.3,1,0.7,1.3,1.3c0.2,0.5,0.6,0.6,1.1,0.6c6.5,0,13,0,19.5,0
		c0.7,0,0.8-0.1,0.6-0.8c-0.4-1.3-0.9-2.7-0.9-4.1c0-1.3,0.4-2.3,1.5-2.9c1.2-0.7,2.5-0.7,3.7,0.1c0.9,0.6,1.5,1.4,2,2.2
		c0.9,1.5,1.7,3.1,2.2,4.7c0.2,0.5,0.4,0.7,1,0.7c0.9,0,1.9,0,2.8,0c0.5,0,0.7,0.2,0.7,0.7c0,1.8,0.1,1.8-1.8,1.8
		c-1.6,0-1.6,0-1.3,1.6c0.9,4.7,1.4,9.5,0.3,14.2c-0.4,1.5-0.4,2.7,0.7,4c1.3,1.7,1.7,3.8,1.7,5.9c0,2.4,0.2,4.7-0.2,7.1
		c-0.2,1.8-1,3.4-2.2,4.9c-0.2,0.2-0.5,0.5,0.1,0.7c2.6,1.2,3.1,3.7,2.4,6.3c-0.4,1.3-1,2.5-1.8,3.6c-4.2,6-8.3,12-12.4,18
		c-0.5,0.7-0.9,1-1.7,0.9c-0.5-0.1-1.3,0.3-1.6-0.2c-0.2-0.4,0.5-0.9,0.8-1.4C67.3,70.1,71.5,64,75.7,58c0.8-1.2,1.6-2.4,1.9-3.9
		c0.3-1.7-0.4-2.8-2.1-3.1c-0.4-0.1-0.8-0.1-1.3-0.1c-14.9,0-29.9,0-44.8,0c-3.2,0-5.9,1.3-8.5,2.9c-2.2,1.4-4.1,3.2-5.6,5.4
		c-4.1,6-8.2,11.9-12.4,17.8c-0.4,0.6-2.3,1-2.9,0.6c-0.4-0.3-0.1-0.6,0.1-0.8c1.2-1.8,2.5-3.6,3.7-5.3c3.1-4.5,6.3-9.1,9.4-13.6
		s7.3-7.6,12.6-9.1c1-0.3,2.1-0.3,3.1-0.5c0.1-0.2-0.1-0.3-0.1-0.5c-1.4-2-2.1-4.1-2-6.5c0-0.7-0.1-0.9-0.9-1
		c-1.1-0.1-1.8,0.4-2.5,1.3C16,52.2,8.2,62.6,0.5,73.1c-0.1,0.1-0.2,0.3-0.5,0.3c0-1.2,0-2.4,0-3.6c0-0.3,0.2-0.4,0.4-0.7
		c1-1.3,1.9-2.6,2.9-3.9c0.3-0.4,0.4-0.8,0.4-1.3c-0.1-2.1-0.2-4.2-0.4-6.3c-1,3-2,5.9-3,8.9c-0.1-2.2-0.4-4.3,0.4-6.4
		c0.9-2.3,1.7-4.7,2.4-7.1c0.4-1.2-0.1-2.4-0.2-3.6c-1.1,3-1.8,6.1-2.8,9.1c0-2.7-0.4-5.4,0.6-8C0.8,50.3,0.9,50,1,49.8
		c0.1-0.3,0.1-0.5-0.4-0.6c-1,0-0.5-0.8-0.6-1.3c0-0.7,0.5-0.3,0.8-0.3C5.4,48,10,48,14.5,46.8c0.7-0.2,1.4-0.5,2-0.8
		c0.2-0.2,0.5-0.3,0.6-0.8c-1.9,0.8-3.7,1.2-5.6,1.5C8,47.2,4.4,47.3,0.7,46.9C0.2,46.8,0,46.7,0,46.1c0-1.7,0-1.6,1.6-1.5
		c4.2,0.3,8.4,0.3,12.6-0.8c0.8-0.2,1.5-0.4,2.2-0.8c0.4-0.2,0.4-0.4,0-0.7c-0.4-0.2-0.8-0.4-1.1-0.5s-0.4-0.2-0.6,0.2
		c-0.4,0.6-1,0.6-1.3,0s-0.6-0.5-1.1-0.4c-0.9,0.3-1.9,0.2-2.8,0c-0.4-0.1-0.7-0.2-0.9,0.3S8,42.6,7.4,42.3
		c-0.5-0.3-0.5-0.8-0.2-1.2c0.4-0.6,0-0.6-0.4-0.6c-1.9,0-3.8,0-5.7,0.3c-0.7,0.1-1,0-1-0.8c0.1-1.6,0-1.6,1.6-1.6
		c0.7,0,0.8-0.2,0.8-0.9c0-7.8,0-15.7,0-23.5c0-0.4,0-0.8-0.5-1c-0.4-0.1-0.5-0.5-0.4-1s0.3-1.1,0.4-1.6c0.2-0.8,0.6-1.1,1.4-0.9
		c0,0,0.1,0,0.2,0c1.3,0.4,2.3,0.1,3.1-1.2C7.4,7.2,7.8,7.2,9,7.7c2.8,1.3,5.6,2.7,8.4,4c1.2,0.6,1.4,1.3,0.5,2.4
		c-2,2.2-4,4.5-6,6.7c-0.9,1-1.5,0.9-2.4-0.1c-1.5-1.8-2.9-3.5-4.4-5.3C4.7,15.1,4.4,14.8,4.1,14.4z M52.9,48.4c3.4,0,6.8,0,10.1,0
		c0.6,0,0.8-0.1,0.8-0.7c-0.2-4,0.7-7.8,2.2-11.4c0.6-1.5,1.6-2.7,3.2-3.4c3.9-1.7,6.2-4.7,6.5-9.1c0.2-3,0-6.1-0.4-9.1
		c-0.6-3.7-1.6-7.2-3.6-10.5c-0.4-0.7-0.8-1.3-1.5-1.7c-0.4-0.3-0.8-0.3-1.3-0.1c-0.4,0.3-0.5,0.7-0.4,1.1C68.7,4.2,68.8,5,69,5.7
		c1,3.7,2.1,7.5,2,11.4c-0.2,4.6-2,8.3-6,10.8c-0.3,0.2-0.6,0.4-0.8,0.7C60.5,33.3,54,34.4,49.1,31c-0.5-0.3-0.9-0.4-1.4-0.3
		c-3,0.6-5.7-0.9-7-3.6c-0.7-1.4-0.9-3-1-4.5c-0.1-2.8,0.2-5.6,0.8-8.4c0.1-0.6,0.1-0.9-0.6-0.8c-0.7,0-1-0.4-1.1-1s0.3-1.1,1-1.2
		c0.4-0.1,0.8-0.1,1.2-0.1c0.9-0.1,1.7-0.3,2.5-0.8c0.9-0.6,0.9-1.3,0-2c-1-0.7-2.7-0.7-3.6,0.1c-0.8,0.7-1.3,1.6-1.7,2.6
		c-1.4,3.3-2.2,6.8-3.3,10.2c-0.8,2.3-1.1,4.6-1,7c0.1,3.8,1.8,6.5,5.3,8c1.4,0.6,2.8,1,4.4,1.3c0.7,0.1,1.2,0.5,1.2,1.3
		c-0.3,3-0.7,6.1-2.3,8.8c-0.4,0.6-0.3,0.8,0.5,0.8C46.1,48.4,49.5,48.4,52.9,48.4z M55.4,13.2c-4.8,0-8.7,3.8-8.7,8.6
		c0,4.9,3.8,8.8,8.7,8.8c4.7,0,8.6-3.9,8.6-8.7S60.1,13.2,55.4,13.2z M25.2,24.3c0,1.6,0,3.3,0,4.9c0,2.7,0,5.4,0,8.1
		c0,0.2-0.2,0.6,0.2,0.7c1,0.3,1.6,0,1.6-1.1c0-0.1,0-0.1,0-0.2c-0.1-3.7,1.2-6.8,4.1-9.1c0.3-0.3,0.4-0.6,0.4-1
		c0-1.1,0.1-2.2,0.4-3.4c1-4,2.4-8,3.6-11.9c0.2-0.6,0.2-0.8-0.5-0.8c-3,0-6,0-9,0c-0.6,0-0.8,0.2-0.8,0.8
		C25.2,15.7,25.2,20,25.2,24.3z M77.2,39.4c0-1.5,0-2.7,0-3.8c-0.1-1.6-0.6-3-1.4-4.3c-0.2-0.3-0.3-0.4-0.7,0
		c-1.5,1.8-3.4,3-5.5,3.9c-0.5,0.2-0.9,0.5-1.2,1c-1.6,3.7-2.6,7.4-2.4,11.4c0,0.5,0.2,0.7,0.8,0.7c2.2,0,4.3,0,6.5,0
		c0.4,0,0.7-0.1,1.1-0.4c1.4-1.3,2.3-2.8,2.7-4.6C77.4,41.9,77.2,40.4,77.2,39.4z M31.7,30.4c-1.2,1.3-1.9,2.7-2.1,4.3
		c-0.3,2.1-0.1,4.2-0.1,6.2c-0.1,2.8,0.8,5.2,2.9,7.1c0.3,0.3,0.6,0.4,1,0.4c1.7,0,3.4,0,5.2,0c0.5,0,0.8-0.2,1.1-0.6
		c1.4-2.2,2.2-4.7,2.5-7.2c0.1-0.8-0.1-1.1-0.9-1.2c-0.4-0.1-0.9-0.2-1.3-0.3c-3.4-1.1-6.1-3-7.5-6.4C32.2,31.9,32,31.2,31.7,30.4z
		 M66.3,23.7c0.9-1,1.4-2.1,1.8-3.2c1-3.1,0.6-6.2-0.1-9.3c-0.1-0.4-0.4-0.5-0.7-0.5c-6.9,0-13.7,0-20.6,0c-0.3,0-0.6,0-0.8,0.4
		c-0.5,0.9-1.3,1.3-2.2,1.7c-0.3,0.1-0.5,0.2-0.6,0.5c-0.7,3.4-1.4,6.8-1,10.3c0.2,1.8,0.2,1.8,2,1.8c0.5,0,0.7-0.1,0.5-0.7
		c-0.3-1-0.3-2-0.3-3c0.1-8.2,9.2-13.5,16.4-9.4C65,14.6,66.7,18.5,66.3,23.7z M14.9,36.1c0-2.3-1.8-4.1-4-4.1
		c-2.3,0-4.1,1.8-4.2,4.1c0,2.2,1.8,4.1,4,4.1C13.1,40.2,14.9,38.4,14.9,36.1z M8.3,10.1c-0.3,0-0.4,0.2-0.5,0.3
		c-0.5,0.6-1,1.3-1.5,1.9c-0.3,0.4-0.3,0.6,0,1c1.3,1.5,2.6,3.1,3.8,4.6c0.3,0.4,0.5,0.4,0.8,0c1.2-1.4,2.5-2.8,3.8-4.2
		c0.4-0.4,0.2-0.5-0.2-0.7c-1.9-0.9-3.9-1.8-5.8-2.7C8.6,10.2,8.4,10.1,8.3,10.1z M5.3,62.3C5.8,61.9,6,61.4,6,60.8
		c0.1-3.5,0.2-7.1,0.3-10.6c0-0.7-0.2-0.8-0.8-0.7c-0.5,0-0.9-0.2-0.9,0.7C4.9,54,5,57.9,5.2,61.7C5.2,61.9,5.1,62.2,5.3,62.3z
		 M15.9,48.1c-1.9,0.6-3.6,0.9-5.4,1.1c-0.2,0-0.4,0.1-0.4,0.3c0.4,1.5,0.8,3,1.3,4.6C13,52.1,14.4,50.2,15.9,48.1z M9.4,56.8
		c0.7-0.5,0.9-1.1,0.6-1.9c-0.2-0.4-0.2-0.9-0.4-1.4c-0.3-1.2-0.7-2.5-1-3.7c-0.1-0.2-0.1-0.4-0.3-0.4S8,49.5,8,49.7c0,1-0.2,2,0,3
		C8.3,54.1,8.9,55.4,9.4,56.8z M44.2,27.8c0.6,0.5,1.2,0.8,2.1,0.7C45.9,27.1,44.9,27.9,44.2,27.8z"/>
	<path class="st0" d="M80.1,60.1c0,1.3,0,2.5,0,3.8c0,0.4-0.2,0.6-0.4,0.9c-2.8,4.2-5.6,8.4-8.3,12.6c-0.2,0.4-0.5,0.4-0.9,0.4
		c-0.7,0-1.8,0.3-2-0.1c-0.3-0.5,0.6-1.2,0.9-1.7c3.3-5.1,6.7-10.1,10-15.1c0.2-0.2,0.3-0.5,0.5-0.8C80,60,80,60,80.1,60.1z"/>
	<path class="st0" d="M52.8,62c0,0.3-0.1,0.5-0.3,0.8c-1.3,1.9-2.7,3.9-4,5.8c-0.5,0.7-1.2,0.9-1.8,0.5S46,68,46.5,67.3
		c1.3-1.9,2.7-3.9,4-5.8c0.3-0.5,0.8-0.8,1.4-0.5C52.5,61,52.8,61.4,52.8,62z"/>
	<path class="st0" d="M35.5,61.9c0,0.3-0.1,0.6-0.3,0.8c-1.2,1.7-2.4,3.4-3.6,5.1c-0.5,0.7-1.2,0.8-1.8,0.4
		c-0.6-0.4-0.6-1.1-0.2-1.8c1.2-1.7,2.4-3.3,3.5-5c0.3-0.5,0.8-0.8,1.4-0.5C35.2,61,35.5,61.3,35.5,61.9z"/>
	<path class="st0" d="M21.7,77.7c0.8-1.2,1.5-2.2,2.2-3.2s1.4-2,2.1-3c0.5-0.7,1.2-0.9,1.8-0.4c0.5,0.4,0.6,1.1,0.2,1.8
		c-1,1.5-2.1,2.9-3.1,4.4c-0.2,0.3-0.5,0.5-0.9,0.5C23.3,77.7,22.6,77.7,21.7,77.7z"/>
	<path class="st0" d="M44.3,73.9c-1,0-1.5-0.9-1.1-1.7c0.4-0.7,0.8-1.3,1.3-1.9c0.4-0.5,0.9-0.5,1.5-0.3c0.5,0.3,0.8,0.7,0.6,1.3
		c-0.4,0.9-1,1.8-1.7,2.5C44.7,73.8,44.4,73.9,44.3,73.9z"/>
	<path class="st0" d="M14.7,27.9c0.9,0.4,1.8,0.9,2.5,1.7c0.1,0.1,0.1,0.3,0,0.5c-0.1,0.1-0.3,0.2-0.5,0.1c-0.8-0.6-1.5-1.1-2.4-1.6
		c-0.2-0.1-0.2-0.3-0.1-0.5C14.2,28,14.4,27.9,14.7,27.9z"/>
	<path class="st0" d="M4.7,30.4c-0.4-0.1-0.5-0.4-0.2-0.7C5.1,29,5.8,28.4,6.7,28c0.2-0.1,0.4-0.1,0.5,0.1c0.1,0.1,0.1,0.4,0,0.5
		c-0.8,0.5-1.6,1.1-2.3,1.7C4.8,30.4,4.7,30.4,4.7,30.4z"/>
	<path class="st0" d="M13.6,29.5c0-0.3,0.2-0.5,0.5-0.4c0.9,0.3,1.6,0.9,2.3,1.5c0.1,0.1,0.1,0.3,0,0.5s-0.3,0.2-0.4,0.1
		c-0.7-0.5-1.4-1-2.1-1.5C13.7,29.7,13.7,29.5,13.6,29.5z"/>
	<path class="st0" d="M5.6,31.3c-0.4-0.1-0.5-0.4-0.3-0.7c0.6-0.6,1.3-1.1,2.1-1.5C7.6,29,7.8,29,7.9,29.3C8,29.5,8,29.6,7.8,29.8
		c-0.7,0.4-1.3,0.8-1.9,1.4C5.8,31.2,5.7,31.2,5.6,31.3z"/>
	<path class="st0" d="M54.3,26c-0.8,0-1.5,0.1-2.3-0.1c-1.7-0.4-2.4-1.3-2.2-3c0.2-2,2.4-3.7,4.6-3.6c2,0.1,4.2,2,4.2,3.9
		c0.1,1.7-0.8,2.7-2.5,2.8C55.5,26.1,54.9,26,54.3,26z M54.2,24.1L54.2,24.1c0.6,0,1.2,0,1.8-0.1c0.6,0,0.7-0.4,0.6-0.9
		c-0.2-0.9-1.4-1.8-2.3-1.8c-1,0-2.2,0.8-2.5,1.7c-0.2,0.6,0,1,0.7,1C53.1,24,53.7,24.1,54.2,24.1z"/>
	<path class="st0" d="M67.6,43.5c0-1.3,0.3-2.6,0.9-3.8c0.3-0.8,1-1,1.6-0.8s0.9,0.9,0.6,1.7C70.2,41.7,70,42.8,70,44
		c0,0.9-0.5,1.4-1.2,1.4s-1.2-0.5-1.2-1.4C67.6,43.8,67.6,43.7,67.6,43.5z"/>
	<path class="st0" d="M39.8,43.9c0,0.2,0,0.5,0,0.8c0,0.7-0.4,1.2-1.2,1.2c-0.7,0-1.2-0.4-1.2-1.1c0-1.3-0.3-2.5-0.8-3.8
		c-0.3-0.7,0-1.3,0.6-1.5c0.7-0.2,1.2-0.1,1.6,0.6C39.4,41.3,39.8,42.5,39.8,43.9z"/>
	<path class="st0" d="M11.2,35c0.4,1.3-0.6,2.1-1.4,3c-0.2,0.2-0.4,0.3-0.7,0.2C8.8,38,9,37.7,9.2,37.5c0.1-0.1,0.2-0.2,0.3-0.3
		c0.8-0.7,1.1-1.6,1-2.6c0-0.5-0.3-1.3,0.3-1.3c0.8,0,0.3,0.8,0.4,1.3C11.2,34.6,11.2,34.7,11.2,35z"/>
</g>
</svg>
