<?xml version="1.0" encoding="utf-8"?>
<!-- Generator: Adobe Illustrator 27.8.1, SVG Export Plug-In . SVG Version: 6.00 Build 0)  -->
<svg version="1.1" id="Layer_1" xmlns="http://www.w3.org/2000/svg" xmlns:xlink="http://www.w3.org/1999/xlink" x="0px" y="0px"
	 viewBox="0 0 80 80" style="enable-background:new 0 0 80 80;" xml:space="preserve">
<style type="text/css">
	.st0{fill:#FFFFFF;}
</style>
<g>
	<path class="st0" d="M45.5,61.4c-3.7,0-7.5-0.1-11.2,0c-2.6,0-5-0.5-7.4-1.7c-0.1-0.1-0.3-0.2-0.5-0.2c-1.5-1-1.1-0.8-2.2,0.3
		c-0.8,0.8-1.5,1.6-2.2,2.4c-1.3,1.4-2.6,2.7-3.9,4c-2,2.2-4.8,1.5-5.6-1.2c0-0.1,0-0.2,0-0.4c0-4.9,0-9.8,0-14.6c0-0.4,0-0.8,0-1.1
		c-6.4-1.7-10.3-5.7-11.9-12c-0.2-0.7-0.2-1.5-0.2-2.2c0-6.8-0.1-13.7,0-20.5c0.1-2.8,1.2-5.4,2.9-7.6C5.2,3.8,7.8,2,11,1
		c1.2-0.4,2.5-0.7,3.8-0.7c10.4-0.1,20.9-0.1,31.4,0c6.7,0.1,12.4,4.1,14.5,10.9c0.1,0.5,0.2,0.9,0.4,1.4c1.4,0,2.8,0,4.1,0
		c3.7,0.1,6.8,1.5,9.6,4c2.6,2.3,4,5.2,4.7,8.6c0.2,0.8,0.2,1.7,0.2,2.6c0,6.1,0.1,12.2,0,18.3c-0.1,4.3-1.6,8-4.7,11
		c-2.1,2-4.6,3.3-7.5,3.9c0,5.2,0,10.4,0,15.6c0,0.2-0.1,0.4-0.1,0.5c-0.1,1.3-1.1,2-2.2,2.4c-1,0.3-2,0.1-2.8-0.7
		c-1.8-1.9-3.7-3.8-5.5-5.8c-2.2-2.2-4.4-4.5-6.5-6.7c-1.6-1.6-3.1-3.2-4.7-4.9C45.5,61.5,45.5,61.4,45.5,61.4z M73.5,46
		c0-6,0-12.1,0-18.1h0.1c0,0,0-0.1-0.1-0.1c-0.3-3.7-2-6.5-5.5-8.2c-2.1-1-4.3-0.9-6.5-0.8c0,0-0.1,0.1-0.1,0.2c0,4.9,0,9.7,0,14.6
		c0,1.6-0.3,3.3-0.7,4.8C59.8,41.5,58,44,55.4,46c-2.7,2.1-5.7,3.2-9.1,3.2c-3.7,0-7.4,0-11.1,0c-0.3,0-0.7,0-0.8,0.1
		c-1.6,1.6-3.1,3.2-4.9,5.1c1.4,0.3,2.5,0.6,3.6,0.8c0.1,0,0.1,0,0.2,0c0.1,0,0.2,0,0.3,0s0.1,0,0.2,0c4.2,0,8.5,0,12.7,0
		c1.1,0,2,0.4,2.7,1.2c1.1,1.2,2.2,2.3,3.3,3.5c2.4,2.5,4.8,5,7.2,7.6c0.5,0.5,0.9,1,1.3,1.4c0.2-0.4,0.2-0.7,0.2-1
		c0-3.3,0-6.5,0-9.8c0-1.2,1.4-2.7,2.7-2.8c1.5-0.1,3.2-0.4,4.5-1.1c3.2-1.6,4.8-4.4,5-8C73.5,46.1,73.5,46,73.5,46z M15.5,6.5
		c-4.9,0-9.1,4.1-9,9c0,0.1,0,0.1,0,0.2c0,6.1,0,12.1,0,18.1c0,0.1,0,0.1,0,0.2c0,0.5,0,1,0.1,1.5c1.2,4.8,4.5,7.3,9.3,7.7
		c1.4,0.1,2.4,0.8,2.7,2.2c0.1,0.5,0.2,0.9,0.2,1.4c0,3.2,0,6.5,0,10c1.4-1.5,2.6-2.9,3.9-4.2c2.3-2.4,4.6-4.7,6.9-7
		c0.4-0.4,0.7-1,1.2-1.3c0.6-0.4,1.3-0.7,2-1.1c0.1,0,0.1-0.1,0.2-0.1c0.9,0,1.9,0,2.8,0c0.1,0,0.1,0,0.2,0c3.5,0,7,0,10.5,0
		c1.5,0,3-0.4,4.3-1.2c2.9-1.8,4.5-4.4,4.6-7.8c0-2,0-3.9,0-5.8c0-1.3,0-2.6,0-3.9c0-0.3,0.1-0.6,0.1-0.9c0-2.1,0-4.2,0-6.4
		c0-0.4-0.1-0.8-0.1-1.2c0-0.1,0-0.2,0-0.3c0-0.2,0-0.5,0-0.7c-0.4-1.2-0.5-2.5-1.2-3.6c-1.8-3.1-4.6-4.7-8.2-4.7
		c-4.8,0-9.5,0-14.3,0c-5.3,0-10.6,0-15.9,0C15.6,6.5,15.6,6.5,15.5,6.5z"/>
	<path class="st0" d="M67.3,77.2c0-0.2,0.1-0.4,0.1-0.5C67.4,76.8,67.4,77,67.3,77.2z"/>
	<path class="st0" d="M12.6,64.7c0,0.1,0,0.2,0,0.4C12.6,64.9,12.6,64.8,12.6,64.7z"/>
	<path class="st0" d="M45.5,61.4c0,0,0.1,0.1,0.2,0.1C45.5,61.5,45.5,61.4,45.5,61.4z"/>
	<path class="st0" d="M55.2,24.3c0-2.8,0-5.7,0-8.5c0,0.4,0.1,0.8,0.1,1.2c0,2.1,0,4.2,0,6.4C55.3,23.7,55.2,24,55.2,24.3z"/>
	<path class="st0" d="M55.2,34c0-2,0-3.9,0-5.8C55.2,30.1,55.2,32.1,55.2,34z"/>
	<path class="st0" d="M55.2,15.5c0-0.2,0-0.5,0-0.7C55.2,15,55.2,15.3,55.2,15.5z"/>
	<path class="st0" d="M15.7,6.5c-0.1,0-0.1,0-0.2,0C15.6,6.5,15.6,6.5,15.7,6.5z"/>
	<path class="st0" d="M6.5,15.5c0,0.1,0,0.1,0,0.2C6.5,15.6,6.5,15.5,6.5,15.5z"/>
	<path class="st0" d="M61.5,18.7c0,0-0.1,0.1-0.1,0.2C61.4,18.8,61.5,18.7,61.5,18.7z"/>
	<path class="st0" d="M73.5,27.8c0-0.1,0-0.1,0-0.2C73.5,27.7,73.6,27.7,73.5,27.8C73.6,27.8,73.6,27.8,73.5,27.8z"/>
	<path class="st0" d="M6.5,33.8c0,0.1,0,0.1,0,0.2C6.5,33.9,6.5,33.9,6.5,33.8z"/>
	<path class="st0" d="M32.6,43.1c0.1,0,0.1-0.1,0.2-0.1C32.7,43.1,32.7,43.1,32.6,43.1z"/>
	<path class="st0" d="M35.6,43c0.1,0,0.1,0,0.2,0C35.7,43,35.7,43,35.6,43z"/>
	<path class="st0" d="M73.5,46.2c0-0.1,0-0.1,0-0.2C73.5,46,73.5,46.1,73.5,46.2z"/>
	<path class="st0" d="M33.1,55.2c0.1,0,0.1,0,0.2,0C33.2,55.2,33.2,55.2,33.1,55.2z"/>
	<path class="st0" d="M33.6,55.2c0.1,0,0.1,0,0.2,0C33.8,55.2,33.7,55.2,33.6,55.2z"/>
</g>
</svg>
