<?xml version="1.0" encoding="utf-8"?>
<!-- Generator: Adobe Illustrator 27.7.0, SVG Export Plug-In . SVG Version: 6.00 Build 0)  -->
<svg version="1.1" id="Layer_1" xmlns="http://www.w3.org/2000/svg" xmlns:xlink="http://www.w3.org/1999/xlink" x="0px" y="0px"
	 viewBox="0 0 80 80" style="enable-background:new 0 0 80 80;" xml:space="preserve">
<style type="text/css">
	.st0{fill:#3666AF;}
</style>
<g>
	<path class="st0" d="M1.1,40c0-21.6,17.5-39,39-38.9C61.7,1.1,79,18.5,79,40C79,61.6,61.5,79,40,79C18.4,78.9,1.1,61.5,1.1,40z
		 M73.4,40C73.4,21.6,58.5,6.7,40,6.7C21.6,6.7,6.7,21.5,6.7,39.9c0,18.5,14.8,33.4,33.3,33.4C58.4,73.4,73.4,58.5,73.4,40z"/>
	<path class="st0" d="M49.4,51c0,0.3-0.3,0.5-0.4,0.6c-1.5,1.5-3,3-4.5,4.5c-0.4,0.4-0.4,0.6,0,1c1.5,1.5,3,3,4.5,4.5
		c0.5,0.4,0.5,0.7,0,1.1c-1,0.9-1.9,1.9-2.8,2.9c-0.5,0.5-0.7,0.4-1.2,0c-1.4-1.5-2.9-2.9-4.3-4.3c-0.6-0.6-0.9-0.5-1.4,0
		c-1.4,1.5-2.9,2.9-4.3,4.3c-0.5,0.5-0.7,0.4-1.2,0c-0.9-1-1.9-1.9-2.9-2.9c-0.4-0.4-0.4-0.6,0-1c1.5-1.5,3-3,4.5-4.4
		c0.5-0.5,0.6-0.7,0-1.2c-1.5-1.4-3-3-4.5-4.4c-0.4-0.4-0.5-0.6,0-1c1-1,2-2,3-3c0.4-0.4,0.6-0.4,1,0c1.5,1.5,3,3,4.4,4.5
		c0.5,0.6,0.8,0.5,1.3,0c1.4-1.5,2.9-2.9,4.4-4.4c0.4-0.4,0.6-0.5,1,0c1,1,2,2,3,3C49.2,50.8,49.3,50.9,49.4,51z"/>
	<path class="st0" d="M28.9,23.3c3.1,0,5.6,2.6,5.6,5.6c0,3-2.5,5.5-5.6,5.6c-3,0-5.6-2.5-5.6-5.6C23.3,25.8,25.8,23.3,28.9,23.3z"
		/>
	<path class="st0" d="M51.1,23.3c3.1,0,5.6,2.5,5.6,5.6c0,3.1-2.5,5.6-5.6,5.6c-3,0-5.5-2.5-5.6-5.5C45.5,25.9,48.1,23.3,51.1,23.3z
		"/>
</g>
</svg>
