<?xml version="1.0" encoding="utf-8"?>
<!-- Generator: Adobe Illustrator 27.7.0, SVG Export Plug-In . SVG Version: 6.00 Build 0)  -->
<svg version="1.1" id="Layer_1" xmlns="http://www.w3.org/2000/svg" xmlns:xlink="http://www.w3.org/1999/xlink" x="0px" y="0px"
	 viewBox="0 0 80 80" style="enable-background:new 0 0 80 80;" xml:space="preserve">
<style type="text/css">
	.st0{fill:#3666AF;}
</style>
<g>
	<path class="st0" d="M40,2.1c2.2,0,4.4,0,6.6,0c1.5,0,2.3,0.8,2.4,2.3c0,2.5,0,4.9,0,7.4c0,1.5-0.8,2.3-2.4,2.3c-1.3,0-2.6,0-3.9,0
		c-0.5,0-0.7,0.2-0.7,0.7C42,17,41.9,17,44.1,17.3c4.3,0.6,8.3,2.1,12,4.5c0.6,0.4,0.9,0.4,1.4-0.1c0.8-0.9,1.6-1.7,2.5-2.5
		c0.5-0.5,0.5-0.7,0-1.2c-2-2-4-4-6-6c-1.3-1.3-1.4-2.3,0-3.7C55.3,7,56.5,5.5,58,4.4c3.8-2.8,9-2.6,12.5,0.6
		c2.2,2.1,4.4,4.2,6.5,6.5c3.5,3.8,3.4,9.6-0.1,13.4c-1.1,1.2-2.3,2.3-3.4,3.4c-1.1,1.1-2.2,1.1-3.3,0c-2.1-2.1-4.2-4.1-6.2-6.2
		c-0.4-0.5-0.7-0.5-1.1,0c-0.7,0.8-1.4,1.5-2.2,2.1c-0.5,0.5-0.6,0.8,0,1.3c4.2,4.1,7.1,8.9,8.4,14.6c2.4,10.9-0.4,20.4-8.2,28.3
		c-0.7,0.7-0.6,1,0,1.6c1.4,1.3,2.7,2.7,4.1,4.1c1.1,1.1,1.3,2.3,0.4,3.2c-0.9,0.9-2.1,0.8-3.2-0.3c-1.5-1.5-3.1-3.1-4.6-4.6
		c-0.5-0.5-0.8-0.6-1.4-0.2c-10.8,6.5-21.6,6.4-32.3,0c-0.5-0.3-0.8-0.3-1.2,0.1c-1.6,1.7-3.3,3.3-5,5c-0.7,0.7-1.6,0.9-2.5,0.4
		c-0.8-0.5-1.1-1.2-1-2.1c0.1-0.5,0.4-0.9,0.8-1.2c1.5-1.5,2.9-3,4.5-4.4c0.5-0.5,0.5-0.7,0-1.2C12.6,62,9.5,54,10.2,44.6
		c0.5-7.4,3.6-13.8,8.9-19c0.7-0.7,0.7-1.1,0-1.7c-0.6-0.5-1.3-1.1-1.8-1.8c-0.6-0.7-1-0.5-1.5,0c-1.9,2-3.9,4-5.9,6
		c-1.3,1.3-2.2,1.3-3.5,0c-1-1-1.9-1.9-2.9-2.9c-4-4.1-4.1-10.1,0-14.2c1.9-2,3.9-4,6-5.9c3.8-3.6,9.7-3.5,13.5,0.1
		c1.2,1.1,2.3,2.2,3.4,3.4c1,1,1,2.1,0,3.1c-2.1,2.1-4.1,4.2-6.2,6.2c-0.5,0.5-0.5,0.8,0,1.3c0.9,0.8,1.7,1.6,2.5,2.5
		c0.4,0.4,0.7,0.4,1.2,0.1c4-2.6,8.4-4.2,13.2-4.6c0.7-0.1,1-0.3,1-1c0-2.1,0-2.1-2-2.1c-0.9,0-1.8,0-2.7,0c-1.3,0-2.2-0.8-2.2-2.1
		c0-2.6,0-5.3,0-7.9c0-1.3,0.9-2,2.2-2C35.5,2.1,37.8,2.1,40,2.1z M40,72.8c14.2,0,25.9-11.5,25.9-25.7c0-14.4-11.6-26.1-25.9-26.1
		c-14.2,0-25.8,11.6-25.9,25.8C14.1,61.2,25.7,72.8,40,72.8z M63.7,6.5c-0.4,0-1,0.1-1.5,0.2c-1.5,0.4-2.5,1.5-3.6,2.5
		c-0.7,0.7-0.8,1,0,1.8c3.8,3.7,7.5,7.5,11.2,11.2c2.2,2.2,2.2,2.2,4.2-0.2c2-2.4,2-5.7-0.2-8c-1.9-2-3.8-3.9-5.8-5.8
		C66.9,7,65.5,6.5,63.7,6.5z M16.3,6.5c-1.7,0-3.1,0.5-4.2,1.5c-2.1,2-4.1,4-6.1,6.1c-1.3,1.4-1.8,3.1-1.4,5.1
		c0.3,1.9,1.7,3.1,2.9,4.4c0.5,0.5,0.8,0.5,1.3,0c2.9-3,5.9-6,8.9-8.9c1.3-1.3,2.7-2.7,4-4c0.2-0.2,0.6-0.4,0.3-0.8
		C20.4,8.2,18.8,6.4,16.3,6.5z M40.1,6.1c-1.4,0-2.9,0-4.3,0c-0.5,0-0.8,0.2-0.7,0.7c0,0.9,0,1.8,0,2.6c0,0.5,0.2,0.7,0.7,0.7
		c2.9,0,5.7,0,8.6,0c0.5,0,0.6-0.2,0.6-0.6c0-0.9,0-1.8,0-2.7c0-0.5-0.2-0.7-0.7-0.7C42.9,6.1,41.5,6.1,40.1,6.1z"/>
	<path class="st0" d="M37.6,51.9c1.2,0,2.3,0,3.5,0c0.8,0,1.8,0.2,1.9-1c0-1.3-1.1-1-1.9-1c-1.2,0-2.5,0-3.7-0.1
		c-3.4-0.3-6-3-6.3-6.5c-0.3-3.1,1.9-6.3,5.1-7.1c0.8-0.2,1-0.6,0.9-1.3c0-0.3,0-0.6,0-0.8c0-2.6,2-3.9,4.4-2.9c0.9,0.4,1.4,1,1.5,2
		c0,0.2,0,0.3,0,0.5c0.1,2.3,0.1,2.3,2.4,2.3c0.6,0,1.2,0,1.8,0.1c1.3,0.3,1.9,1.4,1.9,3.1c0,1.5-0.7,2.4-2,2.7
		C46.6,42,46.2,42,45.8,42c-2.5,0-5,0-7.5,0c-0.7,0-1.2,0.2-1.2,1c0,0.8,0.6,1,1.2,1c1.3,0,2.6,0,3.9,0c3.6,0.1,6.3,2.7,6.8,6.4
		c0.4,3-1.8,6.3-4.9,7.2c-0.9,0.2-1.2,0.6-1.1,1.5c0,0.2,0,0.4,0,0.6c0.2,3-1.8,3.5-4,3.1c-1.1-0.2-1.8-1.1-1.9-2.3
		c-0.1-0.8,0.4-2-0.3-2.5c-0.6-0.4-1.7-0.2-2.6-0.1c-2.8,0.2-3.5-1.8-3.1-3.9c0.2-1.2,1.1-2,2.4-2.1C34.8,51.9,36.2,51.9,37.6,51.9
		C37.6,51.9,37.6,51.9,37.6,51.9z M41.9,40C41.9,40,41.9,40,41.9,40c1.4,0,2.7,0,4.1,0c0.8,0,0.9-0.3,0.9-1c0-0.7-0.2-0.9-0.9-0.9
		c-1.2,0-2.4,0-3.6,0c-1.2,0-1.5-0.3-1.5-1.5c0-0.8,0-1.6,0-2.4c0-0.7-0.1-1.1-1-1.1c-0.8,0-1,0.4-1,1.1c0,0.5,0,1,0,1.6
		c0,2,0,2-2,2.4c-0.1,0-0.2,0.1-0.3,0.1c-2.4,0.7-3.9,3-3.7,5.3c0.3,2.5,2.3,4.3,5,4.4c1.4,0,2.8,0,4.2,0c1.4,0.1,2.6,1.2,2.8,2.7
		c0.2,1.3-0.8,2.7-2,3.1c-0.5,0.2-1.1,0.2-1.7,0.2c-2.4,0-4.8,0-7.2,0c-0.7,0-1.1,0-1.1,0.9c0,0.9,0.4,1,1.2,1c1,0,2.1,0,3.2,0
		c1.5,0,1.7,0.2,1.7,1.6c0,0.7,0,1.5,0,2.2c0,0.8,0.1,1.2,1,1.1c0.9,0,1-0.5,0.9-1.1c0-0.6,0-1.2,0-1.8c0-1.9,0-1.9,1.9-2.2
		c2.3-0.4,4-2.4,4.1-4.7c0.1-2.9-2-5-5.1-5.1c-1.5,0-3,0.2-4.4-0.1c-1.5-0.3-2.6-1.7-2.5-3.2c0.2-1.5,1.4-2.7,2.9-2.7
		C39.3,40,40.6,40,41.9,40z"/>
	<path class="st0" d="M18.1,47c0,4.3,1.2,8.3,3.5,11.9c0.2,0.3,0.3,0.5,0.5,0.8c0.2,0.5,0.1,0.9-0.3,1.2c-0.4,0.3-0.9,0.3-1.3-0.1
		c-0.2-0.2-0.3-0.4-0.4-0.6c-9.6-14.3-1-34.1,16-36.8c6.3-1,12,0.3,17.3,3.7c0.5,0.3,0.9,0.7,0.8,1.4c-0.2,0.8-0.9,1-1.8,0.4
		c-2-1.4-4.2-2.4-6.6-3c-12.2-3.4-24.9,4.6-27.2,17C18.3,44.2,18.1,45.6,18.1,47z"/>
	<path class="st0" d="M61.9,47.4c0-4.7-1.2-8.7-3.5-12.3c-0.2-0.3-0.3-0.5-0.5-0.8c-0.3-0.5-0.1-1,0.4-1.3c0.4-0.3,0.9-0.2,1.2,0.2
		c0.3,0.3,0.5,0.6,0.7,0.9c9.2,14.3,0.8,33.5-16,36.4C38,71.6,32.3,70.4,27,67.1c-0.3-0.2-0.6-0.4-0.9-0.7c-0.3-0.3-0.3-0.8-0.1-1.2
		c0.2-0.4,0.6-0.6,1.1-0.4c0.3,0.1,0.6,0.3,0.8,0.4c13.4,8.7,31,1,33.7-14.7C61.8,49.3,62,48.1,61.9,47.4z"/>
	<path class="st0" d="M57.2,30.8c-0.1,0.5-0.4,1-1,1c-0.7,0-1-0.5-1-1.1c0-0.6,0.5-1,1.1-0.9C56.8,29.8,57.2,30.2,57.2,30.8z"/>
	<path class="st0" d="M23.8,62.1c0.6,0.1,1,0.4,1,1c0,0.6-0.4,1-1,1c-0.6,0-1-0.4-1-1C22.8,62.5,23.2,62.2,23.8,62.1z"/>
</g>
</svg>
